# xmcd CD database file
#
# Track frame offsets:
#	150
#	3430
#	20485
#	21793
#	33603
#	51673
#	81223
#	107313
#	130000
#	131225
#	165043
#	222550
#	224133
#	235563
#	255327
#	258409
#	272044
#	295684
#	317172
#
# Disc length: 4567 seconds
#
# Revision: 0
# Processed by: cddbd v1.5.1PL2 Copyright (c) Steve Scherf et al.
# Submitted via: Feurio! 1.68 - http://www.feurio.com
#
DISCID=0d11d513
DTITLE=Joe Cocker - Mad Dogs and Englishmen
DYEAR=1900
DGENRE=
TTITLE0=Introduction I
TTITLE1=Honky Tonk Woman
TTITLE2=Introduction II
TTITLE3=Sticks and Stones
TTITLE4=Cry Me A River
TTITLE5=Bird On A Wire
TTITLE6=Feelin' Alright
TTITLE7=Superstar
TTITLE8=Introduction III
TTITLE9=Let's Go Get Stoned
TTITLE10=Blue Medley
TTITLE11=Introduction IV
TTITLE12=Girl From The North country
TTITLE13=Give Peace A Chance
TTITLE14=Introduction V
TTITLE15=She Came in Thru the Bathroom window
TTITLE16=Space Captain
TTITLE17=The Letter
TTITLE18=Delta Lady
EXTD=
EXTT0=
EXTT1=
EXTT2=
EXTT3=
EXTT4=
EXTT5=
EXTT6=
EXTT7=
EXTT8=
EXTT9=
EXTT10=
EXTT11=
EXTT12=
EXTT13=
EXTT14=
EXTT15=
EXTT16=
EXTT17=
EXTT18=
PLAYORDER=
